<svg xmlns="http://www.w3.org/2000/svg" viewBox="0 0 912 564" width="912" height="564" style="font-family: ui-monospace, monospace; font-size: 12px;"><defs><marker id="arrow" viewBox="0 0 10 10" refX="10" refY="5" markerWidth="8" markerHeight="8" orient="auto-start-reverse"><path d="M 0 0 L 10 5 L 0 10 z" fill="rgba(154,124,255,0.6)"></path></marker></defs><path d="M 336 59 C 296 59, 296 59, 256 59" fill="none" stroke="rgba(154,124,255,0.4)" stroke-width="1.5" marker-end="url(#arrow)"></path><path d="M 656 59 C 456 59, 456 59, 256 59" fill="none" stroke="rgba(154,124,255,0.4)" stroke-width="1.5" marker-end="url(#arrow)"></path><path d="M 256 433 C 256 433, 256 59, 256 59" fill="none" stroke="rgba(154,124,255,0.4)" stroke-width="1.5" marker-end="url(#arrow)"></path><path d="M 336 411 C 296 411, 296 389, 256 389" fill="none" stroke="rgba(154,124,255,0.4)" stroke-width="1.5" marker-end="url(#arrow)"></path><path d="M 656 389 C 616 389, 616 389, 576 389" fill="none" stroke="rgba(154,124,255,0.4)" stroke-width="1.5" marker-end="url(#arrow)"></path><rect x="16" y="16" width="240" height="290" rx="8" fill="rgba(22,22,22,1)" stroke="rgba(255,255,255,0.1)" stroke-width="1"></rect><rect x="16" y="16" width="240" height="32" rx="8" fill="rgba(154,124,255,0.12)"></rect><rect x="16" y="44" width="240" height="4" fill="rgba(154,124,255,0.12)"></rect><text x="28" y="37" fill="rgba(255,255,255,1)" font-weight="600" font-size="13">Pool</text><text x="28" y="63" fill="rgba(255,255,255,0.85)">id</text><rect x="48.4" y="53" width="22" height="14" rx="3" fill="rgba(79,188,252,0.7)" opacity="0.2"></rect><text x="59.4" y="62" fill="rgba(79,188,252,0.7)" font-size="9" font-weight="600" text-anchor="middle">PK</text><text x="244" y="63" fill="rgba(255,255,255,0.4)" text-anchor="end" font-size="11">Bytes</text><text x="28" y="85" fill="rgba(255,255,255,0.85)">chainId</text><text x="244" y="85" fill="rgba(255,255,255,0.4)" text-anchor="end" font-size="11">Int</text><text x="28" y="107" fill="rgba(255,255,255,0.85)">currency0</text><text x="244" y="107" fill="rgba(255,255,255,0.4)" text-anchor="end" font-size="11">Bytes</text><text x="28" y="129" fill="rgba(255,255,255,0.85)">currency1</text><text x="244" y="129" fill="rgba(255,255,255,0.4)" text-anchor="end" font-size="11">Bytes</text><text x="28" y="151" fill="rgba(255,255,255,0.85)">fee</text><text x="244" y="151" fill="rgba(255,255,255,0.4)" text-anchor="end" font-size="11">Int</text><text x="28" y="173" fill="rgba(255,255,255,0.85)">tickSpacing</text><text x="244" y="173" fill="rgba(255,255,255,0.4)" text-anchor="end" font-size="11">Int</text><text x="28" y="195" fill="rgba(255,255,255,0.85)">hasHook</text><text x="244" y="195" fill="rgba(255,255,255,0.4)" text-anchor="end" font-size="11">Boolean</text><text x="28" y="217" fill="rgba(255,255,255,0.85)">hook</text><text x="244" y="217" fill="rgba(255,255,255,0.4)" text-anchor="end" font-size="11">Bytes?</text><text x="28" y="239" fill="rgba(255,255,255,0.85)">hookPerms</text><text x="244" y="239" fill="rgba(255,255,255,0.4)" text-anchor="end" font-size="11">Int?</text><text x="28" y="261" fill="rgba(255,255,255,0.85)">initBlock</text><text x="244" y="261" fill="rgba(255,255,255,0.4)" text-anchor="end" font-size="11">BigInt</text><text x="28" y="283" fill="rgba(255,255,255,0.85)">initialTick</text><text x="244" y="283" fill="rgba(255,255,255,0.4)" text-anchor="end" font-size="11">Int</text><rect x="336" y="16" width="240" height="158" rx="8" fill="rgba(22,22,22,1)" stroke="rgba(255,255,255,0.1)" stroke-width="1"></rect><rect x="336" y="16" width="240" height="32" rx="8" fill="rgba(154,124,255,0.12)"></rect><rect x="336" y="44" width="240" height="4" fill="rgba(154,124,255,0.12)"></rect><text x="348" y="37" fill="rgba(255,255,255,1)" font-weight="600" font-size="13">SwapEvent</text><text x="348" y="63" fill="rgba(154,124,255,0.9)">poolId</text><rect x="397.2" y="53" width="22" height="14" rx="3" fill="rgba(79,188,252,0.7)" opacity="0.2"></rect><text x="408.2" y="62" fill="rgba(79,188,252,0.7)" font-size="9" font-weight="600" text-anchor="middle">PK</text><rect x="425.2" y="53" width="22" height="14" rx="3" fill="rgba(154,124,255,0.7)" opacity="0.2"></rect><text x="436.2" y="62" fill="rgba(154,124,255,0.7)" font-size="9" font-weight="600" text-anchor="middle">FK</text><text x="564" y="63" fill="rgba(255,255,255,0.4)" text-anchor="end" font-size="11">Bytes</text><text x="348" y="85" fill="rgba(255,255,255,0.85)">block</text><rect x="390" y="75" width="22" height="14" rx="3" fill="rgba(79,188,252,0.7)" opacity="0.2"></rect><text x="401" y="84" fill="rgba(79,188,252,0.7)" font-size="9" font-weight="600" text-anchor="middle">PK</text><text x="564" y="85" fill="rgba(255,255,255,0.4)" text-anchor="end" font-size="11">BigInt</text><text x="348" y="107" fill="rgba(255,255,255,0.85)">logIndex</text><rect x="411.6" y="97" width="22" height="14" rx="3" fill="rgba(79,188,252,0.7)" opacity="0.2"></rect><text x="422.6" y="106" fill="rgba(79,188,252,0.7)" font-size="9" font-weight="600" text-anchor="middle">PK</text><text x="564" y="107" fill="rgba(255,255,255,0.4)" text-anchor="end" font-size="11">Int</text><text x="348" y="129" fill="rgba(255,255,255,0.85)">tickBefore</text><text x="564" y="129" fill="rgba(255,255,255,0.4)" text-anchor="end" font-size="11">Int</text><text x="348" y="151" fill="rgba(255,255,255,0.85)">feeAmount</text><text x="564" y="151" fill="rgba(255,255,255,0.4)" text-anchor="end" font-size="11">Bytes</text><rect x="656" y="16" width="240" height="224" rx="8" fill="rgba(22,22,22,1)" stroke="rgba(255,255,255,0.1)" stroke-width="1"></rect><rect x="656" y="16" width="240" height="32" rx="8" fill="rgba(154,124,255,0.12)"></rect><rect x="656" y="44" width="240" height="4" fill="rgba(154,124,255,0.12)"></rect><text x="668" y="37" fill="rgba(255,255,255,1)" font-weight="600" font-size="13">ModifyLiquidityEvent</text><text x="668" y="63" fill="rgba(154,124,255,0.9)">poolId</text><rect x="717.2" y="53" width="22" height="14" rx="3" fill="rgba(79,188,252,0.7)" opacity="0.2"></rect><text x="728.2" y="62" fill="rgba(79,188,252,0.7)" font-size="9" font-weight="600" text-anchor="middle">PK</text><rect x="745.2" y="53" width="22" height="14" rx="3" fill="rgba(154,124,255,0.7)" opacity="0.2"></rect><text x="756.2" y="62" fill="rgba(154,124,255,0.7)" font-size="9" font-weight="600" text-anchor="middle">FK</text><text x="884" y="63" fill="rgba(255,255,255,0.4)" text-anchor="end" font-size="11">Bytes</text><text x="668" y="85" fill="rgba(255,255,255,0.85)">block</text><rect x="710" y="75" width="22" height="14" rx="3" fill="rgba(79,188,252,0.7)" opacity="0.2"></rect><text x="721" y="84" fill="rgba(79,188,252,0.7)" font-size="9" font-weight="600" text-anchor="middle">PK</text><text x="884" y="85" fill="rgba(255,255,255,0.4)" text-anchor="end" font-size="11">BigInt</text><text x="668" y="107" fill="rgba(255,255,255,0.85)">logIndex</text><rect x="731.6" y="97" width="22" height="14" rx="3" fill="rgba(79,188,252,0.7)" opacity="0.2"></rect><text x="742.6" y="106" fill="rgba(79,188,252,0.7)" font-size="9" font-weight="600" text-anchor="middle">PK</text><text x="884" y="107" fill="rgba(255,255,255,0.4)" text-anchor="end" font-size="11">Int</text><text x="668" y="129" fill="rgba(255,255,255,0.85)">sender</text><text x="884" y="129" fill="rgba(255,255,255,0.4)" text-anchor="end" font-size="11">Bytes</text><text x="668" y="151" fill="rgba(255,255,255,0.85)">tickLower</text><text x="884" y="151" fill="rgba(255,255,255,0.4)" text-anchor="end" font-size="11">Int</text><text x="668" y="173" fill="rgba(255,255,255,0.85)">tickUpper</text><text x="884" y="173" fill="rgba(255,255,255,0.4)" text-anchor="end" font-size="11">Int</text><text x="668" y="195" fill="rgba(255,255,255,0.85)">salt</text><text x="884" y="195" fill="rgba(255,255,255,0.4)" text-anchor="end" font-size="11">Bytes</text><text x="668" y="217" fill="rgba(255,255,255,0.85)">liquidityDelta</text><text x="884" y="217" fill="rgba(255,255,255,0.4)" text-anchor="end" font-size="11">Bytes</text><rect x="16" y="346" width="240" height="202" rx="8" fill="rgba(22,22,22,1)" stroke="rgba(255,255,255,0.1)" stroke-width="1"></rect><rect x="16" y="346" width="240" height="32" rx="8" fill="rgba(154,124,255,0.12)"></rect><rect x="16" y="374" width="240" height="4" fill="rgba(154,124,255,0.12)"></rect><text x="28" y="367" fill="rgba(255,255,255,1)" font-weight="600" font-size="13">Campaign</text><text x="28" y="393" fill="rgba(255,255,255,0.85)">id</text><rect x="48.4" y="383" width="22" height="14" rx="3" fill="rgba(79,188,252,0.7)" opacity="0.2"></rect><text x="59.4" y="392" fill="rgba(79,188,252,0.7)" font-size="9" font-weight="600" text-anchor="middle">PK</text><text x="244" y="393" fill="rgba(255,255,255,0.4)" text-anchor="end" font-size="11">String</text><text x="28" y="415" fill="rgba(255,255,255,0.85)">creator</text><text x="244" y="415" fill="rgba(255,255,255,0.4)" text-anchor="end" font-size="11">Bytes</text><text x="28" y="437" fill="rgba(154,124,255,0.9)">poolId</text><rect x="77.2" y="427" width="22" height="14" rx="3" fill="rgba(154,124,255,0.7)" opacity="0.2"></rect><text x="88.2" y="436" fill="rgba(154,124,255,0.7)" font-size="9" font-weight="600" text-anchor="middle">FK</text><text x="244" y="437" fill="rgba(255,255,255,0.4)" text-anchor="end" font-size="11">Bytes</text><text x="28" y="459" fill="rgba(255,255,255,0.85)">rewardToken</text><text x="244" y="459" fill="rgba(255,255,255,0.4)" text-anchor="end" font-size="11">Bytes</text><text x="28" y="481" fill="rgba(255,255,255,0.85)">amount</text><text x="244" y="481" fill="rgba(255,255,255,0.4)" text-anchor="end" font-size="11">Bytes</text><text x="28" y="503" fill="rgba(255,255,255,0.85)">startBlock</text><text x="244" y="503" fill="rgba(255,255,255,0.4)" text-anchor="end" font-size="11">BigInt</text><text x="28" y="525" fill="rgba(255,255,255,0.85)">endBlock</text><text x="244" y="525" fill="rgba(255,255,255,0.4)" text-anchor="end" font-size="11">BigInt</text><rect x="336" y="346" width="240" height="202" rx="8" fill="rgba(22,22,22,1)" stroke="rgba(255,255,255,0.1)" stroke-width="1"></rect><rect x="336" y="346" width="240" height="32" rx="8" fill="rgba(154,124,255,0.12)"></rect><rect x="336" y="374" width="240" height="4" fill="rgba(154,124,255,0.12)"></rect><text x="348" y="367" fill="rgba(255,255,255,1)" font-weight="600" font-size="13">Epoch</text><text x="348" y="393" fill="rgba(255,255,255,0.85)">id</text><rect x="368.4" y="383" width="22" height="14" rx="3" fill="rgba(79,188,252,0.7)" opacity="0.2"></rect><text x="379.4" y="392" fill="rgba(79,188,252,0.7)" font-size="9" font-weight="600" text-anchor="middle">PK</text><text x="564" y="393" fill="rgba(255,255,255,0.4)" text-anchor="end" font-size="11">String</text><text x="348" y="415" fill="rgba(154,124,255,0.9)">campaignId</text><rect x="426" y="405" width="22" height="14" rx="3" fill="rgba(154,124,255,0.7)" opacity="0.2"></rect><text x="437" y="414" fill="rgba(154,124,255,0.7)" font-size="9" font-weight="600" text-anchor="middle">FK</text><text x="564" y="415" fill="rgba(255,255,255,0.4)" text-anchor="end" font-size="11">String</text><text x="348" y="437" fill="rgba(255,255,255,0.85)">startBlock</text><text x="564" y="437" fill="rgba(255,255,255,0.4)" text-anchor="end" font-size="11">BigInt</text><text x="348" y="459" fill="rgba(255,255,255,0.85)">endBlock</text><text x="564" y="459" fill="rgba(255,255,255,0.4)" text-anchor="end" font-size="11">BigInt</text><text x="348" y="481" fill="rgba(255,255,255,0.85)">merkleRoot</text><text x="564" y="481" fill="rgba(255,255,255,0.4)" text-anchor="end" font-size="11">Bytes?</text><text x="348" y="503" fill="rgba(255,255,255,0.85)">publishedAt</text><text x="564" y="503" fill="rgba(255,255,255,0.4)" text-anchor="end" font-size="11">DateTime?</text><text x="348" y="525" fill="rgba(255,255,255,0.85)">publishedTxHash</text><text x="564" y="525" fill="rgba(255,255,255,0.4)" text-anchor="end" font-size="11">Bytes?</text><rect x="656" y="346" width="240" height="180" rx="8" fill="rgba(22,22,22,1)" stroke="rgba(255,255,255,0.1)" stroke-width="1"></rect><rect x="656" y="346" width="240" height="32" rx="8" fill="rgba(154,124,255,0.12)"></rect><rect x="656" y="374" width="240" height="4" fill="rgba(154,124,255,0.12)"></rect><text x="668" y="367" fill="rgba(255,255,255,1)" font-weight="600" font-size="13">Leaf</text><text x="668" y="393" fill="rgba(154,124,255,0.9)">epochId</text><rect x="724.4" y="383" width="22" height="14" rx="3" fill="rgba(79,188,252,0.7)" opacity="0.2"></rect><text x="735.4" y="392" fill="rgba(79,188,252,0.7)" font-size="9" font-weight="600" text-anchor="middle">PK</text><rect x="752.4" y="383" width="22" height="14" rx="3" fill="rgba(154,124,255,0.7)" opacity="0.2"></rect><text x="763.4" y="392" fill="rgba(154,124,255,0.7)" font-size="9" font-weight="600" text-anchor="middle">FK</text><text x="884" y="393" fill="rgba(255,255,255,0.4)" text-anchor="end" font-size="11">String</text><text x="668" y="415" fill="rgba(255,255,255,0.85)">positionManager</text><rect x="782" y="405" width="22" height="14" rx="3" fill="rgba(79,188,252,0.7)" opacity="0.2"></rect><text x="793" y="414" fill="rgba(79,188,252,0.7)" font-size="9" font-weight="600" text-anchor="middle">PK</text><text x="884" y="415" fill="rgba(255,255,255,0.4)" text-anchor="end" font-size="11">Bytes</text><text x="668" y="437" fill="rgba(255,255,255,0.85)">tokenId</text><rect x="724.4" y="427" width="22" height="14" rx="3" fill="rgba(79,188,252,0.7)" opacity="0.2"></rect><text x="735.4" y="436" fill="rgba(79,188,252,0.7)" font-size="9" font-weight="600" text-anchor="middle">PK</text><text x="884" y="437" fill="rgba(255,255,255,0.4)" text-anchor="end" font-size="11">Bytes</text><text x="668" y="459" fill="rgba(255,255,255,0.85)">delta</text><text x="884" y="459" fill="rgba(255,255,255,0.4)" text-anchor="end" font-size="11">Bytes</text><text x="668" y="481" fill="rgba(255,255,255,0.85)">cumulative</text><text x="884" y="481" fill="rgba(255,255,255,0.4)" text-anchor="end" font-size="11">Bytes</text><text x="668" y="503" fill="rgba(255,255,255,0.85)">proof</text><text x="884" y="503" fill="rgba(255,255,255,0.4)" text-anchor="end" font-size="11">Bytes?</text></svg>